<svg width="36" height="38" viewBox="0 0 36 38" fill="none" xmlns="http://www.w3.org/2000/svg">
<g filter="url(#filter0_d_1_13647)">
<circle cx="18" cy="16" r="14" fill="url(#paint0_linear_1_13647)"/>
<path d="M24.9866 10.2088C25.1112 9.40332 24.3454 8.76755 23.6292 9.082L9.36482 15.3448C8.85123 15.5703 8.8888 16.3483 9.42147 16.5179L12.3631 17.4547C12.9246 17.6335 13.5325 17.541 14.0228 17.2023L20.655 12.6203C20.855 12.4821 21.073 12.7665 20.9021 12.9426L16.1281 17.8646C15.665 18.3421 15.7569 19.1512 16.314 19.5005L21.659 22.8523C22.2585 23.2282 23.0297 22.8506 23.1418 22.1261L24.9866 10.2088Z" fill="white"/>
</g>
<defs>
<filter id="filter0_d_1_13647" x="-2" y="0" width="40" height="40" filterUnits="userSpaceOnUse" color-interpolation-filters="sRGB">
<feFlood flood-opacity="0" result="BackgroundImageFix"/>
<feColorMatrix in="SourceAlpha" type="matrix" values="0 0 0 0 0 0 0 0 0 0 0 0 0 0 0 0 0 0 127 0" result="hardAlpha"/>
<feOffset dy="4"/>
<feGaussianBlur stdDeviation="2"/>
<feComposite in2="hardAlpha" operator="out"/>
<feColorMatrix type="matrix" values="0 0 0 0 0 0 0 0 0 0 0 0 0 0 0 0 0 0 0.25 0"/>
<feBlend mode="normal" in2="BackgroundImageFix" result="effect1_dropShadow_1_13647"/>
<feBlend mode="normal" in="SourceGraphic" in2="effect1_dropShadow_1_13647" result="shape"/>
</filter>
<linearGradient id="paint0_linear_1_13647" x1="18" y1="2" x2="18" y2="30" gradientUnits="userSpaceOnUse">
<stop stop-color="#37BBFE"/>
<stop offset="1" stop-color="#007DBB"/>
</linearGradient>
</defs>
</svg>
